# AST/ASF file generated using VICON BodyLanguage
# -----------------------------------------------
:version 1.10
:name VICON
:units
  mass 1.0
  length 0.45
  angle deg
:documentation
   .ast/.asf automatically generated from VICON data using
   VICON BodyBuilder and BodyLanguage model FoxedUp or BRILLIANT.MOD
:root
   order TX TY TZ RX RY RZ
   axis XYZ
   position 0 0 0  
   orientation 0 0 0 
:bonedata
  begin
     id 1 
     name lhipjoint
     direction 0.624716 -0.669793 0.401383 
     length 2.38238 
     axis 0 0 0  XYZ
  end
  begin
     id 2 
     name lfemur
     direction 0.34202 -0.939693 0  
     length 6.4574  
     axis 0 0 20  XYZ
    dof rx ry rz
    limits (-160.0 20.0)
           (-70.0 70.0)
           (-60.0 70.0)
  end
  begin
     id 3 
     name ltibia
     direction 0.34202 -0.939693 0   
     length 7.68739   
     axis 0 0 20   XYZ
    dof rx
    limits (-10.0 170.0)
  end
  begin
     id 4 
     name lfoot
     direction 0.0681309 -0.187188 0.979959   
     length 2.46615   
     axis -90 7.62852e-016 20   XYZ
    dof rx rz
    limits (-45.0 90.0)
           (-70.0 20.0)
  end
  begin
     id 5 
     name ltoes
     direction 1.53566e-011 -4.21819e-011 1   
     length 1.2376   
     axis -90 7.62852e-016 20   XYZ
    dof rx
    limits (-90.0 20.0)
  end
  begin
     id 6 
     name rhipjoint
     direction -0.644473 -0.655875 0.393043   
     length 2.43293  
     axis 0 0 0  XYZ 
  end
  begin
     id 7 
     name rfemur
     direction -0.34202 -0.939693 0   
     length 6.7025   
     axis 0 0 -20   XYZ
    dof rx ry rz
    limits (-160.0 20.0)
           (-70.0 70.0)
           (-70.0 60.0)
  end
  begin
     id 8 
     name rtibia
     direction -0.34202 -0.939693 0   
     length 7.80547   
     axis 0 0 -20   XYZ
    dof rx
    limits (-10.0 170.0)
 end
 begin
     id 9 
     name rfoot
     direction -0.0756734 -0.207911 0.975216   
     length 2.40315  
     axis -90 -7.62852e-016 -20   XYZ
    dof rx rz
    limits (-45.0 90.0)
           (-20.0 70.0)
  end
  begin
     id 10 
     name rtoes
     direction -1.5353e-011 -4.21879e-011 1   
     length 1.20477   
     axis -90 -7.62852e-016 -20   XYZ
    dof rx
    limits (-90.0 20.0)
  end
  begin
     id 11 
     name lowerback
     direction 0.0160353 0.987463 -0.157037   
     length 2.18572   
     axis 0 0 0   XYZ
    dof rx ry rz
    limits (-20.0 45.0)
           (-30.0 30.0)
           (-30.0 30.0)
  end
  begin
     id 12 
     name upperback
     direction -0.00499661 0.999756 0.0215076   
     length 2.18016   
     axis 0 0 0   XYZ
    dof rx ry rz
    limits (-20.0 45.0)
           (-30.0 30.0)
           (-30.0 30.0)
  end
  begin
     id 13 
     name thorax
     direction -0.00921346 0.995333 0.0960619   
     length 2.24923   
     axis 0 0 0   XYZ
    dof rx ry rz
    limits (-20.0 45.0)
           (-30.0 30.0)
           (-30.0 30.0)
  end
  begin
     id 14 
     name lowerneck
     direction 0.0274184 0.991181 0.12965   
     length 1.70911   
     axis 0 0 0   XYZ
    dof rx ry rz
    limits (-20.0 45.0)
           (-30.0 30.0)
           (-30.0 30.0)
  end
  begin
     id 15 
     name upperneck
     direction 0.0015627 0.999959 -0.00893559   
     length 1.69312   
     axis 0 0 0   XYZ
    dof rx ry rz
    limits (-20.0 45.0)
           (-30.0 30.0)
           (-30.0 30.0)
  end
  begin
     id 16
     name head
     direction -0.00230242 0.999856 -0.0168327  
     length 1.80241  
     axis 0 0 0   XYZ
    dof rx ry rz
    limits (-20.0 45.0)
           (-30.0 30.0)
           (-30.0 30.0)
  end
  begin
     id 17 
     name lclavicle
     direction 0.955523 0.290741 -0.0494489  
     length 3.84275  
     axis 0 0 0   XYZ
    dof ry rz
    limits (-20.0 10.0)
           (0.0 20.0)
  end
  begin
     id 18 
     name lhumerus
     direction 1 -4.48967e-011 -3.18382e-028   
     length 5.17714   
     axis 180 -30 -90   XYZ
    dof rx ry rz
    limits (-60.0 90.0)
           (-90.0 90.0)
           (-90.0 90.0)
  end
  begin
     id 19
     name lradius
     direction 1 -4.48968e-011 -2.22911e-027   
     length 3.43679   
     axis 180 -30 -90   XYZ
    dof rx
    limits (-10.0 170.0)
  end
  begin
     id 20
     name lwrist
     direction 1 -4.48951e-011 -6.32245e-027   
     length 1.7184   
     axis 3.57107e-015 90 90   XYZ
    dof ry
    limits (-180.0 0.0)
 end
  begin
     id 21 
     name lhand
     direction 1 -4.48924e-011 -1.26431e-026   
     length 0.573117   
     axis 8.06912e-015 90 90   XYZ
    dof rx rz
    limits (-90.0 90.0)
           (-45.0 45.0)
  end
  begin
     id 22 
     name lfingers
     direction 1 -4.49001e-011 -2.52965e-026   
     length 0.462062   
     axis 1.61381e-014 90 90   XYZ
    dof rx
    limits (0.0 90.0)
  end
  begin
     id 23
     name lthumb
     direction 0.707107 -6.35008e-011 0.707107   
     length 0.663431   
     axis -90 45 -1.62303e-014   XYZ
    dof rx rz
    limits (-45.0 45.0)
           (-45.0 45.0)
  end
  begin
     id 24 
     name rclavicle
     direction -0.963917 0.256881 -0.0698287   
     length 3.73057  
     axis 0 0 0   XYZ 
    dof ry rz
    limits (-10.0 20.0)
           (-20.0 0.0)
  end
  begin
     id 25 
     name rhumerus
     direction -1 -4.48962e-011 -2.73982e-027  
     length 5.23908   
     axis 180 30 90   XYZ
    dof rx ry rz
    limits (-90.0 60.0)
           (-90.0 90.0)
           (-90.0 90.0)
  end
  begin
     id 26 
     name rradius
     direction -1 -4.48968e-011 -4.33218e-027   
     length 3.46485   
     axis 180 30 90   XYZ
    dof rx
    limits (-10.0 170.0)
  end
  begin
     id 27 
     name rwrist
     direction -1 -4.48989e-011 -6.32372e-027   
     length 1.73243   
     axis 3.57107e-015 -90 -90   XYZ
    dof ry
    limits (-180.0 0.0)
  end
  begin
     id 28
     name rhand
     direction -1 -4.48948e-011 -1.26448e-026   
     length 0.608752   
     axis 8.06912e-015 -90 -90   XYZ
    dof rx rz
    limits (-90.0 90.0)
           (-45.0 45.0)
  end
  begin
     id 29
     name rfingers
     direction -1 -4.48962e-011 -2.52913e-026   
     length 0.490792   
     axis 1.61381e-014 -90 -90   XYZ
    dof rx
    limits (0.0 90.0)
  end
  begin
     id 30
     name rthumb
     direction -0.707107 -6.34878e-011 0.707107   
     length 0.704682   
     axis -90 -45 1.62303e-014   XYZ
    dof rx rz
    limits (-45.0 45.0)
           (-45.0 45.0)
  end
:hierarchy
  begin
    root lhipjoint rhipjoint lowerback
    lhipjoint lfemur
    lfemur ltibia
    ltibia lfoot
    lfoot ltoes
    rhipjoint rfemur
    rfemur rtibia
    rtibia rfoot
    rfoot rtoes
    lowerback upperback
    upperback thorax
    thorax lowerneck lclavicle rclavicle
    lowerneck upperneck
    upperneck head
    lclavicle lhumerus
    lhumerus lradius
    lradius lwrist
    lwrist lhand lthumb
    lhand lfingers
    rclavicle rhumerus
    rhumerus rradius
    rradius rwrist
    rwrist rhand rthumb
    rhand rfingers
  end

#!OML:ASF G:\JayActor3\Patient Classification 1\Patient 1\Session 6\male.ASF
:FULLY-SPECIFIED
:DEGREES
144
root 50.0433 15.9895 17.4917 184.347 -40.1283 -181.654
lowerback -3.69654 -0.0445321 -3.38473
upperback 3.59128 0.16088 -1.81002
thorax 5.80093 -0.058609 0.0260075
lowerneck -8.23754 -0.502764 2.18879
upperneck 15.3199 -1.62364 1.93757
head 5.99859 -0.642312 0.11486
rclavicle 2.8128e-014 -5.1684e-014
rhumerus -30.5515 -12.3777 -82.6574
rradius 30.6139
rwrist 1.3564
rhand -18.6673 -7.78309
rfingers 7.12502
rthumb 7.62632 -37.6256
lclavicle 2.8128e-014 -5.1684e-014
lhumerus -28.864 6.12303 83.2572
lradius 23.6388
lwrist 15.7397
lhand -19.0083 12.9634
lfingers 7.12502
lthumb 7.29715 42.8176
rfemur -17.396 4.90699 16.211
rtibia 39.2877
rfoot -25.2231 -10.7966
rtoes 1.38427
lfemur -7.67942 8.68482 -22.9709
ltibia 23.7117
lfoot -19.0683 -1.90473
ltoes 12.6723
145
root 50.0404 15.9909 17.4868 184.423 -40.1424 -181.703
lowerback -3.70669 -0.0544079 -3.43463
upperback 3.61303 0.151201 -1.81514
thorax 5.83005 -0.0663972 0.0474595
lowerneck -8.2395 -0.495604 2.1887
upperneck 15.321 -1.60793 1.90433
head 5.99892 -0.636869 0.10559
rclavicle 3.0911e-014 2.22639e-014
rhumerus -30.5013 -12.3495 -82.6749
rradius 30.6353
rwrist 1.33577
rhand -18.6542 -7.77097
rfingers 7.12502
rthumb 7.63895 -37.613
lclavicle 3.0911e-014 2.22639e-014
lhumerus -28.9355 6.28903 83.1527
lradius 23.5064
lwrist 15.611
lhand -18.9867 13.002
lfingers 7.12502
lthumb 7.31796 42.8555
rfemur -17.435 4.94253 16.1814
rtibia 39.3083
rfoot -25.2424 -10.8862
rtoes 1.26472
lfemur -7.6763 8.65813 -23.0151
ltibia 23.647
lfoot -19.0341 -1.90074
ltoes 12.7583
146
root 50.0372 15.9924 17.4815 184.507 -40.16 -181.752
lowerback -3.7248 -0.0662475 -3.49109
upperback 3.63105 0.139716 -1.81794
thorax 5.85992 -0.0753121 0.0748295
lowerneck -8.24469 -0.491935 2.19662
upperneck 15.3294 -1.59684 1.85973
head 6.00198 -0.63401 0.0910234
rclavicle -4.64162e-014 7.95139e-016
rhumerus -30.4552 -12.3176 -82.6919
rradius 30.6638
rwrist 1.30923
rhand -18.6456 -7.7628
rfingers 7.12502
rthumb 7.64725 -37.6045
lclavicle -4.64162e-014 7.95139e-016
lhumerus -29.0048 6.46145 83.047
lradius 23.3691
lwrist 15.4848
lhand -18.9286 13.0429
lfingers 7.12502
lthumb 7.37411 42.8944
rfemur -17.4799 4.97872 16.1534
rtibia 39.3273
rfoot -25.2574 -10.9911
rtoes 1.11784
lfemur -7.68104 8.63642 -23.0594
ltibia 23.5848
lfoot -18.9993 -1.90424
ltoes 12.8414
147
root 50.0338 15.9939 17.4759 184.598 -40.1806 -181.802
lowerback -3.74795 -0.0788101 -3.55102
upperback 3.64235 0.127798 -1.82063
thorax 5.88564 -0.084391 0.104253
lowerneck -8.23724 -0.491266 2.20386
upperneck 15.3342 -1.59003 1.81829
head 6.00171 -0.633297 0.077302
rclavicle 6.55989e-014 -5.725e-014
rhumerus -30.4228 -12.2826 -82.7078
rradius 30.7016
rwrist 1.27748
rhand -18.6441 -7.76442
rfingers 7.12502
rthumb 7.64868 -37.6061
lclavicle 6.55989e-014 -5.725e-014
lhumerus -29.0774 6.64515 82.9346
lradius 23.2275
lwrist 15.3653
lhand -18.8577 13.0493
lfingers 7.12502
lthumb 7.44254 42.8984
rfemur -17.5298 5.0158 16.125
rtibia 39.3446
rfoot -25.2714 -11.1054
rtoes 0.958925
lfemur -7.69444 8.62425 -23.1048
ltibia 23.5268
lfoot -18.9636 -1.91958
ltoes 12.9226
148
root 50.0303 15.9955 17.4701 184.695 -40.2025 -181.854
lowerback -3.77465 -0.0888652 -3.60969
upperback 3.64859 0.119488 -1.82683
thorax 5.90801 -0.0914385 0.129668
lowerneck -8.2296 -0.492943 2.21756
upperneck 15.3427 -1.58852 1.78123
head 6.00264 -0.634553 0.0634719
rclavicle -3.50855e-014 -1.66979e-014
rhumerus -30.4027 -12.2533 -82.7256
rradius 30.7507
rwrist 1.23968
rhand -18.6473 -7.77994
rfingers 7.12502
rthumb 7.64563 -37.6217
lclavicle -3.50855e-014 -1.66979e-014
lhumerus -29.1447 6.82651 82.815
lradius 23.0784
lwrist 15.2546
lhand -18.7628 13.0487
lfingers 7.12502
lthumb 7.53411 42.8945
rfemur -17.5824 5.05379 16.0954
rtibia 39.3594
rfoot -25.2815 -11.2283
rtoes 0.787338
lfemur -7.71597 8.60676 -23.1521
ltibia 23.4726
lfoot -18.9258 -1.93418
ltoes 13.0094
